<svg width="1080" height="1080" viewBox="0 0 1080 1080" fill="none" xmlns="http://www.w3.org/2000/svg">
<circle cx="540" cy="540" r="345" stroke="#5C2626" stroke-width="10" stroke-dasharray="20 20"/>
<path d="M139.271 609.629C138.665 609.629 138.081 609.393 137.637 608.968C137.192 608.543 136.92 607.961 136.875 607.337C136.851 607.012 136.889 606.686 136.988 606.376C137.086 606.067 137.243 605.78 137.449 605.533C137.655 605.286 137.906 605.083 138.188 604.936C138.471 604.789 138.778 604.701 139.093 604.677L320.265 590.629L338.773 471.39H103.375C102.045 471.39 100.968 470.28 100.968 468.909C100.968 468.583 101.03 468.26 101.151 467.959C101.272 467.658 101.449 467.384 101.673 467.154C101.896 466.923 102.162 466.741 102.454 466.616C102.746 466.492 103.059 466.428 103.375 466.428H341.592C341.941 466.428 342.285 466.506 342.601 466.657C342.917 466.807 343.197 467.027 343.423 467.3C343.649 467.573 343.815 467.893 343.91 468.239C344.004 468.584 344.025 468.947 343.97 469.301L324.721 593.348C324.634 593.9 324.37 594.405 323.971 594.783C323.572 595.161 323.061 595.389 322.521 595.431L139.454 609.624C139.393 609.629 139.332 609.629 139.271 609.629ZM129.841 610.322C129.312 610.322 128.798 610.142 128.378 609.81C127.958 609.478 127.657 609.012 127.52 608.485L74.5824 405.047C74.5004 404.732 74.4793 404.404 74.5204 404.081C74.5615 403.758 74.664 403.446 74.822 403.164C74.98 402.882 75.1904 402.635 75.4411 402.437C75.6919 402.238 75.9781 402.093 76.2834 402.009C77.5668 401.66 78.8869 402.436 79.2299 403.763L132.167 607.202C132.249 607.517 132.269 607.845 132.228 608.168C132.187 608.491 132.085 608.802 131.927 609.084C131.769 609.367 131.558 609.614 131.308 609.812C131.057 610.01 130.771 610.156 130.466 610.24C130.262 610.295 130.052 610.323 129.841 610.322Z" fill="#5C2626" stroke="#5C2626" stroke-width="3.2"/>
<path d="M139.273 609.639C138.744 609.639 138.23 609.459 137.81 609.127C137.391 608.795 137.089 608.329 136.952 607.803L81.4201 395.125C81.2635 394.493 81.3549 393.823 81.6744 393.259C81.994 392.696 82.5159 392.285 83.1271 392.115C83.7384 391.946 84.3898 392.032 84.9403 392.354C85.4907 392.676 85.8959 393.209 86.0681 393.837L141.599 606.513C141.765 607.149 141.679 607.827 141.36 608.397C141.042 608.968 140.517 609.384 139.901 609.556C139.696 609.612 139.485 609.64 139.273 609.639ZM76.9062 406.886H43.2191C42.9031 406.886 42.5901 406.822 42.2981 406.697C42.006 406.573 41.7407 406.39 41.5172 406.159C41.2937 405.929 41.1165 405.655 40.9957 405.354C40.8748 405.053 40.8128 404.731 40.813 404.405C40.8128 404.079 40.875 403.756 40.9958 403.455C41.1167 403.154 41.2939 402.881 41.5174 402.65C41.7408 402.42 42.0062 402.237 42.2981 402.112C42.5901 401.988 42.9031 401.924 43.2191 401.924H76.9062C77.2222 401.924 77.5352 401.988 77.8272 402.112C78.1192 402.237 78.3845 402.42 78.608 402.65C78.8314 402.881 79.0087 403.154 79.1295 403.455C79.2504 403.756 79.3125 404.079 79.3124 404.405C79.3125 404.731 79.2504 405.053 79.1295 405.354C79.0087 405.655 78.8314 405.929 78.608 406.159C78.3845 406.39 78.1192 406.572 77.8272 406.697C77.5352 406.822 77.2222 406.886 76.9062 406.886Z" fill="#5C2626" stroke="#5C2626" stroke-width="3.2"/>
<path d="M83.7444 396.962H43.2191C42.9031 396.962 42.5901 396.898 42.2981 396.774C42.0062 396.649 41.7408 396.466 41.5174 396.236C41.2939 396.006 41.1167 395.732 40.9958 395.431C40.875 395.13 40.8128 394.807 40.813 394.481C40.813 393.11 41.8888 392 43.2191 392H83.745C84.061 392 84.374 392.064 84.6661 392.189C84.9581 392.313 85.2235 392.496 85.4469 392.726C85.6704 392.957 85.8476 393.231 85.9684 393.532C86.0893 393.833 86.1513 394.156 86.1511 394.481C86.1511 394.807 86.0888 395.13 85.9679 395.431C85.8469 395.732 85.6696 396.005 85.4461 396.236C85.2227 396.466 84.9573 396.649 84.6653 396.774C84.3733 396.898 84.0604 396.962 83.7444 396.962Z" fill="#5C2626" stroke="#5C2626" stroke-width="3.2"/>
<path d="M43.219 406.886C39.2383 406.886 36 403.547 36 399.443C36 395.339 39.2383 392 43.219 392C43.5351 392 43.8481 392.064 44.1401 392.189C44.4322 392.313 44.6975 392.496 44.921 392.726C45.1444 392.957 45.3217 393.231 45.4425 393.532C45.5633 393.833 45.6254 394.156 45.6251 394.481C45.6253 394.807 45.5632 395.13 45.4423 395.431C45.3214 395.732 45.1442 396.006 44.9208 396.236C44.6973 396.466 44.432 396.649 44.14 396.774C43.848 396.898 43.535 396.962 43.219 396.962C42.581 396.963 41.9691 397.224 41.518 397.689C41.0668 398.154 40.8132 398.785 40.8129 399.443C40.8134 400.101 41.067 400.732 41.5181 401.197C41.9693 401.662 42.581 401.923 43.219 401.924C43.535 401.924 43.848 401.988 44.14 402.112C44.432 402.237 44.6973 402.42 44.9208 402.65C45.1442 402.881 45.3214 403.154 45.4423 403.455C45.5632 403.756 45.6253 404.079 45.6251 404.405C45.6253 404.731 45.5632 405.053 45.4423 405.354C45.3214 405.655 45.1442 405.929 44.9208 406.159C44.6973 406.39 44.432 406.572 44.14 406.697C43.848 406.822 43.535 406.886 43.219 406.886ZM322.342 501.161H126.676C126.36 501.161 126.047 501.097 125.755 500.973C125.463 500.848 125.197 500.665 124.974 500.435C124.75 500.205 124.573 499.931 124.452 499.63C124.331 499.329 124.269 499.006 124.269 498.68C124.269 498.355 124.331 498.032 124.452 497.731C124.573 497.43 124.75 497.156 124.974 496.926C125.197 496.695 125.463 496.513 125.755 496.388C126.047 496.264 126.36 496.199 126.676 496.2H322.342C323.672 496.2 324.749 497.309 324.749 498.68C324.749 499.006 324.687 499.329 324.566 499.63C324.445 499.931 324.268 500.205 324.044 500.435C323.821 500.666 323.555 500.848 323.263 500.973C322.971 501.098 322.658 501.162 322.342 501.161ZM312.718 535.894H141.113C139.783 535.894 138.707 534.785 138.707 533.413C138.707 532.042 139.783 530.932 141.113 530.932H312.718C314.048 530.932 315.124 532.042 315.124 533.413C315.124 534.785 314.048 535.894 312.718 535.894ZM303.092 570.627H150.738C150.422 570.628 150.109 570.564 149.817 570.439C149.525 570.314 149.26 570.131 149.036 569.901C148.813 569.671 148.636 569.397 148.515 569.096C148.394 568.795 148.332 568.472 148.332 568.146C148.332 567.82 148.394 567.498 148.515 567.196C148.636 566.895 148.813 566.622 149.036 566.391C149.26 566.161 149.525 565.978 149.817 565.854C150.109 565.729 150.422 565.665 150.738 565.665H303.092C303.409 565.665 303.721 565.729 304.013 565.854C304.305 565.978 304.571 566.161 304.794 566.391C305.018 566.622 305.195 566.895 305.316 567.196C305.437 567.498 305.499 567.82 305.499 568.146C305.499 569.518 304.423 570.627 303.092 570.627ZM125.029 640.094C124.667 640.094 124.311 640.01 123.986 639.847C123.701 639.706 123.446 639.508 123.236 639.265C123.025 639.022 122.864 638.739 122.759 638.432C122.655 638.124 122.611 637.799 122.629 637.473C122.647 637.148 122.728 636.83 122.865 636.537L137.11 606.082C137.685 604.852 139.124 604.338 140.322 604.925C140.897 605.211 141.338 605.721 141.548 606.343C141.758 606.964 141.72 607.646 141.443 608.239L127.198 638.693C127.001 639.114 126.693 639.468 126.309 639.716C125.925 639.964 125.482 640.095 125.029 640.094ZM115.5 640.094C115.139 640.094 114.782 640.01 114.457 639.847C114.173 639.706 113.918 639.508 113.707 639.265C113.497 639.022 113.335 638.739 113.231 638.432C113.126 638.124 113.082 637.799 113.1 637.474C113.118 637.148 113.199 636.83 113.336 636.537L127.581 606.082C128.157 604.852 129.595 604.338 130.794 604.925C131.368 605.211 131.809 605.721 132.019 606.343C132.229 606.964 132.192 607.646 131.914 608.239L117.67 638.693C117.473 639.114 117.165 639.468 116.781 639.716C116.397 639.964 115.953 640.095 115.5 640.094ZM312.718 659.941H139.469C139.153 659.941 138.84 659.877 138.548 659.752C138.256 659.628 137.99 659.445 137.767 659.215C137.543 658.984 137.366 658.711 137.245 658.41C137.124 658.109 137.062 657.786 137.062 657.46C137.062 656.088 138.138 654.979 139.469 654.979H312.718C313.034 654.978 313.347 655.043 313.639 655.167C313.931 655.292 314.196 655.475 314.42 655.705C314.643 655.936 314.82 656.209 314.941 656.51C315.062 656.811 315.124 657.134 315.124 657.46C315.124 657.786 315.062 658.109 314.941 658.41C314.82 658.711 314.643 658.984 314.419 659.215C314.196 659.445 313.931 659.628 313.639 659.752C313.347 659.877 313.034 659.941 312.718 659.941ZM312.718 650.017H139.469C139.153 650.017 138.84 649.953 138.548 649.829C138.256 649.704 137.99 649.521 137.767 649.291C137.543 649.06 137.366 648.787 137.245 648.486C137.124 648.185 137.062 647.862 137.062 647.536C137.062 647.21 137.124 646.888 137.245 646.587C137.366 646.286 137.543 646.012 137.767 645.782C137.99 645.551 138.256 645.368 138.548 645.244C138.84 645.119 139.153 645.055 139.469 645.055H312.718C313.034 645.055 313.347 645.119 313.639 645.244C313.931 645.368 314.196 645.551 314.419 645.782C314.643 646.012 314.82 646.286 314.941 646.587C315.062 646.888 315.124 647.21 315.124 647.536C315.124 647.862 315.062 648.185 314.941 648.486C314.82 648.787 314.643 649.06 314.42 649.291C314.196 649.521 313.931 649.704 313.639 649.829C313.347 649.953 313.034 650.017 312.718 650.017Z" fill="#5C2626" stroke="#5C2626" stroke-width="3.2"/>
<path d="M139.469 659.941C124.874 659.941 113 649.924 113 637.612C113 637.286 113.062 636.964 113.183 636.663C113.304 636.362 113.481 636.088 113.704 635.858C113.928 635.627 114.193 635.444 114.485 635.32C114.777 635.195 115.09 635.131 115.406 635.131C115.722 635.131 116.035 635.195 116.327 635.32C116.619 635.444 116.884 635.627 117.108 635.858C117.331 636.088 117.509 636.362 117.629 636.663C117.75 636.964 117.812 637.286 117.812 637.612C117.812 647.187 127.527 654.979 139.469 654.979C139.785 654.978 140.098 655.042 140.39 655.167C140.682 655.292 140.947 655.475 141.171 655.705C141.394 655.936 141.571 656.209 141.692 656.51C141.813 656.811 141.875 657.134 141.875 657.46C141.875 657.786 141.813 658.109 141.692 658.41C141.571 658.711 141.394 658.984 141.17 659.215C140.947 659.445 140.682 659.628 140.39 659.752C140.098 659.877 139.785 659.941 139.469 659.941Z" fill="#5C2626" stroke="#5C2626" stroke-width="3.2"/>
<path d="M139.469 650.017C131.517 650.017 122.625 644.711 122.625 637.612C122.625 637.286 122.687 636.964 122.808 636.663C122.929 636.362 123.106 636.088 123.329 635.858C123.553 635.627 123.818 635.444 124.11 635.32C124.402 635.195 124.715 635.131 125.031 635.131C125.347 635.131 125.66 635.195 125.952 635.32C126.244 635.444 126.509 635.627 126.733 635.858C126.956 636.088 127.134 636.362 127.254 636.663C127.375 636.964 127.437 637.286 127.437 637.612C127.437 641.232 133.622 645.055 139.469 645.055C139.785 645.055 140.098 645.119 140.39 645.244C140.682 645.368 140.947 645.551 141.17 645.781C141.394 646.012 141.571 646.285 141.692 646.587C141.813 646.888 141.875 647.21 141.875 647.536C141.875 647.862 141.813 648.185 141.692 648.486C141.571 648.787 141.394 649.06 141.17 649.291C140.947 649.521 140.682 649.704 140.39 649.828C140.098 649.953 139.785 650.017 139.469 650.017ZM312.718 659.941C312.401 659.941 312.089 659.877 311.797 659.752C311.505 659.628 311.239 659.445 311.016 659.215C310.792 658.984 310.615 658.711 310.494 658.41C310.373 658.109 310.311 657.786 310.311 657.46C310.311 656.088 311.387 654.979 312.718 654.979C313.355 654.978 313.967 654.717 314.419 654.252C314.87 653.787 315.123 653.156 315.124 652.498C315.124 651.132 314.043 650.017 312.718 650.017C312.401 650.017 312.088 649.953 311.796 649.829C311.504 649.704 311.239 649.521 311.016 649.291C310.792 649.06 310.615 648.787 310.494 648.486C310.373 648.185 310.311 647.862 310.311 647.536C310.311 647.21 310.373 646.888 310.494 646.587C310.615 646.285 310.792 646.012 311.016 645.781C311.239 645.551 311.505 645.368 311.797 645.244C312.089 645.119 312.401 645.055 312.718 645.055C316.698 645.055 319.936 648.394 319.936 652.498C319.936 656.602 316.698 659.941 312.718 659.941ZM293.468 580.551C293.152 580.551 292.839 580.487 292.547 580.362C292.255 580.238 291.99 580.055 291.766 579.824C291.543 579.594 291.365 579.321 291.245 579.019C291.124 578.718 291.062 578.396 291.062 578.07V488.756C291.062 488.431 291.124 488.108 291.245 487.807C291.365 487.506 291.543 487.232 291.766 487.002C291.99 486.771 292.255 486.589 292.547 486.464C292.839 486.34 293.152 486.275 293.468 486.276C293.784 486.275 294.097 486.34 294.389 486.464C294.681 486.589 294.946 486.771 295.17 487.002C295.393 487.232 295.57 487.506 295.691 487.807C295.812 488.108 295.874 488.431 295.874 488.756V578.071C295.874 578.396 295.812 578.719 295.691 579.02C295.57 579.321 295.393 579.594 295.169 579.825C294.946 580.055 294.681 580.238 294.389 580.362C294.097 580.487 293.784 580.551 293.468 580.551ZM259.78 580.551C259.464 580.551 259.151 580.487 258.859 580.362C258.567 580.238 258.302 580.055 258.079 579.824C257.855 579.594 257.678 579.32 257.557 579.019C257.436 578.718 257.374 578.396 257.375 578.07V488.756C257.374 488.431 257.436 488.108 257.557 487.807C257.678 487.506 257.855 487.232 258.079 487.002C258.302 486.772 258.567 486.589 258.859 486.464C259.151 486.34 259.464 486.275 259.78 486.276C261.11 486.276 262.187 487.385 262.187 488.756V578.071C262.187 578.396 262.125 578.719 262.004 579.02C261.883 579.321 261.706 579.595 261.482 579.825C261.259 580.055 260.993 580.238 260.701 580.362C260.409 580.487 260.096 580.551 259.78 580.551ZM226.092 580.551C225.776 580.551 225.463 580.487 225.171 580.362C224.879 580.238 224.614 580.055 224.391 579.824C224.167 579.594 223.99 579.321 223.869 579.019C223.748 578.718 223.686 578.396 223.686 578.07V488.756C223.686 488.431 223.748 488.108 223.869 487.807C223.99 487.506 224.167 487.232 224.391 487.002C224.614 486.771 224.879 486.589 225.171 486.464C225.463 486.34 225.776 486.275 226.092 486.276C227.423 486.276 228.499 487.385 228.499 488.756V578.071C228.499 578.396 228.437 578.719 228.316 579.02C228.195 579.321 228.018 579.595 227.794 579.825C227.571 580.055 227.305 580.238 227.013 580.362C226.721 580.487 226.408 580.551 226.092 580.551ZM192.405 580.551C192.089 580.551 191.776 580.487 191.484 580.362C191.192 580.238 190.927 580.055 190.704 579.824C190.48 579.594 190.303 579.321 190.182 579.019C190.061 578.718 189.999 578.396 189.999 578.07V488.756C189.999 488.431 190.061 488.108 190.182 487.807C190.303 487.506 190.48 487.232 190.704 487.002C190.927 486.771 191.192 486.589 191.484 486.464C191.776 486.34 192.089 486.275 192.405 486.276C193.736 486.276 194.812 487.385 194.812 488.756V578.071C194.812 578.396 194.75 578.719 194.629 579.02C194.508 579.321 194.331 579.595 194.107 579.825C193.884 580.055 193.618 580.238 193.326 580.362C193.034 580.487 192.721 580.551 192.405 580.551ZM158.718 580.551C158.402 580.551 158.089 580.487 157.797 580.362C157.505 580.238 157.24 580.055 157.016 579.824C156.793 579.594 156.616 579.321 156.495 579.019C156.374 578.718 156.312 578.396 156.312 578.07V488.756C156.312 488.431 156.374 488.108 156.495 487.807C156.616 487.506 156.793 487.232 157.016 487.002C157.24 486.771 157.505 486.589 157.797 486.464C158.089 486.34 158.402 486.275 158.718 486.276C159.034 486.275 159.347 486.34 159.639 486.464C159.931 486.589 160.197 486.771 160.42 487.002C160.643 487.232 160.821 487.506 160.942 487.807C161.062 488.108 161.125 488.431 161.124 488.756V578.071C161.125 578.396 161.062 578.719 160.942 579.02C160.821 579.321 160.643 579.594 160.42 579.825C160.196 580.055 159.931 580.238 159.639 580.362C159.347 580.487 159.034 580.551 158.718 580.551ZM156.312 699.635C145.698 699.635 137.062 690.734 137.062 679.788C137.062 677.86 137.33 675.95 137.861 674.119C138.044 673.489 138.461 672.959 139.022 672.647C139.583 672.334 140.241 672.264 140.852 672.451C141.155 672.543 141.438 672.696 141.683 672.901C141.928 673.106 142.132 673.359 142.283 673.646C142.433 673.932 142.527 674.246 142.56 674.57C142.592 674.894 142.562 675.222 142.472 675.534C142.075 676.915 141.874 678.347 141.875 679.787C141.875 687.995 148.351 694.673 156.312 694.673C164.273 694.673 170.75 687.995 170.75 679.787C170.75 678.338 170.547 676.909 170.153 675.534C170.062 675.222 170.032 674.894 170.064 674.57C170.097 674.246 170.191 673.932 170.341 673.646C170.492 673.36 170.695 673.107 170.941 672.902C171.186 672.696 171.468 672.543 171.771 672.451C172.074 672.357 172.391 672.326 172.706 672.359C173.02 672.392 173.325 672.489 173.603 672.644C173.881 672.799 174.127 673.009 174.326 673.262C174.525 673.515 174.673 673.806 174.763 674.119C175.295 675.958 175.564 677.868 175.562 679.788C175.562 690.734 166.926 699.635 156.312 699.635Z" fill="#5C2626" stroke="#5C2626" stroke-width="3.2"/>
<path d="M156.312 687.231C150.9 687.231 145.541 674.167 141.999 663.206C141.899 662.898 141.859 662.572 141.881 662.247C141.904 661.922 141.988 661.605 142.129 661.314C142.27 661.023 142.466 660.763 142.704 660.55C142.943 660.337 143.219 660.174 143.519 660.071C143.818 659.967 144.135 659.924 144.45 659.947C144.766 659.969 145.074 660.055 145.356 660.201C145.639 660.346 145.891 660.548 146.098 660.794C146.305 661.04 146.463 661.326 146.562 661.636C149.878 671.889 154.517 681.542 156.486 682.292C158.107 681.542 162.746 671.889 166.061 661.636C166.16 661.326 166.318 661.04 166.525 660.794C166.732 660.548 166.984 660.346 167.267 660.201C167.55 660.055 167.858 659.969 168.173 659.947C168.489 659.924 168.805 659.967 169.104 660.071C169.404 660.174 169.681 660.336 169.92 660.55C170.158 660.763 170.354 661.022 170.495 661.314C170.636 661.605 170.721 661.922 170.743 662.247C170.765 662.571 170.725 662.898 170.625 663.206C167.083 674.167 161.724 687.231 156.312 687.231ZM281.436 699.635C270.825 699.635 262.187 690.734 262.187 679.788C262.187 677.855 262.459 675.946 262.986 674.114C263.171 673.485 263.591 672.957 264.152 672.646C264.714 672.334 265.372 672.264 265.983 672.452C266.594 672.642 267.107 673.073 267.41 673.652C267.713 674.23 267.781 674.909 267.601 675.539C267.201 676.91 266.999 678.339 266.999 679.789C266.999 687.997 273.476 694.674 281.436 694.674C289.397 694.674 295.874 687.997 295.874 679.789C295.874 678.339 295.677 676.91 295.277 675.535C295.097 674.904 295.167 674.225 295.471 673.646C295.774 673.068 296.288 672.637 296.899 672.447C297.202 672.355 297.52 672.325 297.835 672.359C298.149 672.393 298.454 672.491 298.732 672.646C299.01 672.802 299.256 673.013 299.455 673.266C299.654 673.52 299.802 673.811 299.892 674.124C300.419 675.963 300.687 677.871 300.686 679.789C300.686 690.734 292.048 699.635 281.436 699.635Z" fill="#5C2626" stroke="#5C2626" stroke-width="3.2"/>
<path d="M281.437 687.231C276.023 687.231 270.665 674.167 267.121 663.207C266.921 662.583 266.968 661.902 267.254 661.314C267.539 660.726 268.039 660.279 268.644 660.071C268.944 659.967 269.26 659.926 269.576 659.948C269.891 659.971 270.199 660.057 270.482 660.202C270.764 660.348 271.017 660.549 271.224 660.795C271.431 661.041 271.589 661.327 271.689 661.636C275.003 671.889 279.642 681.542 281.611 682.293C283.232 681.542 287.87 671.889 291.184 661.636C291.284 661.327 291.442 661.041 291.649 660.795C291.856 660.548 292.109 660.347 292.391 660.202C292.674 660.056 292.982 659.97 293.298 659.947C293.613 659.925 293.93 659.967 294.229 660.071C294.834 660.279 295.335 660.726 295.62 661.314C295.906 661.902 295.953 662.583 295.752 663.207C292.208 674.167 286.851 687.231 281.437 687.231Z" fill="#5C2626" stroke="#5C2626" stroke-width="3.2"/>
<g clip-path="url(#clip0_3_97)">
<path d="M1011.61 623.116C1000.22 605.55 981.573 585.653 951.209 574.342C933.843 584.885 912.746 591.093 890.003 591.093C867.247 591.093 846.15 584.886 828.784 574.342C798.421 585.653 779.769 605.55 768.388 623.116C753.284 646.416 765.126 679.383 791.249 679.383C817.372 679.383 890.004 679.383 890.004 679.383C890.004 679.383 962.628 679.383 988.752 679.383C1014.87 679.383 1026.72 646.416 1011.61 623.116Z" fill="#5C2626" stroke="#5C2626" stroke-width="0.5"/>
<path d="M890.003 569.047C934.605 569.047 970.751 537.668 970.751 498.968V482.18C970.751 443.48 934.605 412.102 890.003 412.102C845.394 412.102 809.242 443.48 809.242 482.181V498.968C809.242 537.668 845.395 569.047 890.003 569.047Z" fill="#5C2626" stroke="#5C2626" stroke-width="0.5"/>
</g>
<g clip-path="url(#clip1_3_97)">
<path d="M467.444 319.543L516.172 270.815H588.034C646.533 270.815 694 223.348 694 164.85C694 106.351 646.596 58.8843 588.034 58.8843H491.966C433.404 58.8843 386 106.351 386 164.85C386 211.687 416.384 251.337 458.493 265.331V315.824C458.493 320.552 464.103 322.884 467.444 319.543ZM583.559 151.738C590.808 151.738 596.67 157.601 596.67 164.85C596.67 172.099 590.808 177.962 583.559 177.962C576.309 177.962 570.447 172.099 570.447 164.85C570.447 157.601 576.309 151.738 583.559 151.738ZM540 151.738C547.249 151.738 553.112 157.601 553.112 164.85C553.112 172.099 547.249 177.962 540 177.962C532.751 177.962 526.888 172.099 526.888 164.85C526.888 157.601 532.751 151.738 540 151.738ZM496.441 151.738C503.691 151.738 509.553 157.601 509.553 164.85C509.553 172.099 503.691 177.962 496.441 177.962C489.192 177.962 483.33 172.099 483.33 164.85C483.33 157.601 489.192 151.738 496.441 151.738Z" fill="#5C2626"/>
</g>
<circle cx="540" cy="890" r="154" fill="#5C2626"/>
<path d="M531.278 1026.27V753.545H548.749V1026.27H531.278ZM590.084 835.364C588.806 824.568 583.621 816.188 574.53 810.222C565.439 804.256 554.289 801.273 541.079 801.273C531.42 801.273 522.968 802.835 515.724 805.96C508.55 809.085 502.939 813.382 498.891 818.851C494.914 824.32 492.925 830.534 492.925 837.494C492.925 843.318 494.31 848.325 497.08 852.516C499.921 856.635 503.543 860.08 507.947 862.849C512.35 865.548 516.966 867.786 521.796 869.561C526.626 871.266 531.064 872.651 535.113 873.716L557.272 879.682C562.954 881.173 569.275 883.233 576.235 885.861C583.266 888.489 589.978 892.075 596.37 896.621C602.833 901.095 608.16 906.848 612.35 913.879C616.54 920.911 618.635 929.54 618.635 939.767C618.635 951.557 615.546 962.21 609.367 971.727C603.259 981.244 594.31 988.808 582.52 994.419C570.802 1000.03 556.562 1002.84 539.8 1002.84C524.175 1002.84 510.645 1000.31 499.211 995.271C487.847 990.229 478.898 983.197 472.364 974.178C465.901 965.158 462.243 954.682 461.391 942.75H488.664C489.374 950.989 492.144 957.807 496.974 963.205C501.874 968.531 508.053 972.509 515.51 975.136C523.039 977.693 531.135 978.972 539.8 978.972C549.885 978.972 558.941 977.338 566.966 974.071C574.992 970.733 581.349 966.116 586.036 960.222C590.724 954.256 593.067 947.295 593.067 939.341C593.067 932.097 591.043 926.202 586.995 921.656C582.947 917.111 577.62 913.418 571.015 910.577C564.41 907.736 557.272 905.25 549.601 903.119L522.755 895.449C505.709 890.548 492.215 883.553 482.272 874.462C472.329 865.371 467.357 853.474 467.357 838.773C467.357 826.557 470.66 815.903 477.265 806.812C483.941 797.651 492.89 790.548 504.111 785.506C515.404 780.392 528.01 777.835 541.931 777.835C555.993 777.835 568.493 780.357 579.431 785.399C590.368 790.371 599.033 797.189 605.425 805.854C611.888 814.518 615.297 824.355 615.653 835.364H590.084Z" fill="#FFD6B6"/>
<defs>
<clipPath id="clip0_3_97">
<rect width="308" height="267.281" fill="white" transform="translate(736 412.102)"/>
</clipPath>
<clipPath id="clip1_3_97">
<rect width="308" height="308" fill="white" transform="translate(386 36)"/>
</clipPath>
</defs>
</svg>
