<svg width="1010" height="1008" viewBox="0 0 1010 1008" fill="none" xmlns="http://www.w3.org/2000/svg">
<circle cx="506" cy="504" r="345" stroke="#5C2626" stroke-width="10" stroke-dasharray="20 20"/>
<path d="M105.271 573.629C104.665 573.629 104.081 573.393 103.637 572.968C103.192 572.543 102.92 571.961 102.875 571.337C102.851 571.012 102.889 570.686 102.988 570.376C103.086 570.067 103.243 569.78 103.449 569.533C103.655 569.286 103.906 569.083 104.188 568.936C104.471 568.789 104.778 568.701 105.093 568.677L286.265 554.629L304.773 435.39H69.3748C68.0445 435.39 66.9681 434.28 66.9681 432.909C66.9679 432.583 67.0301 432.26 67.151 431.959C67.2719 431.658 67.4492 431.384 67.6727 431.154C67.8962 430.923 68.1616 430.741 68.4537 430.616C68.7457 430.492 69.0588 430.428 69.3748 430.428H307.592C307.941 430.428 308.285 430.506 308.601 430.657C308.917 430.807 309.197 431.027 309.423 431.3C309.649 431.573 309.815 431.893 309.91 432.239C310.004 432.584 310.025 432.947 309.97 433.301L290.721 557.348C290.634 557.9 290.37 558.405 289.971 558.783C289.572 559.161 289.061 559.389 288.521 559.431L105.454 573.624C105.393 573.629 105.332 573.629 105.271 573.629ZM95.8411 574.322C95.312 574.322 94.7978 574.142 94.3781 573.81C93.9583 573.478 93.6567 573.012 93.5198 572.485L40.5824 369.047C40.5004 368.732 40.4793 368.404 40.5204 368.081C40.5615 367.758 40.664 367.446 40.822 367.164C40.98 366.882 41.1904 366.635 41.4411 366.437C41.6919 366.238 41.9781 366.093 42.2834 366.009C43.5668 365.66 44.8869 366.436 45.2299 367.763L98.1666 571.202C98.2485 571.517 98.2695 571.845 98.2283 572.168C98.1871 572.491 98.0846 572.802 97.9267 573.084C97.7687 573.367 97.5584 573.614 97.3077 573.812C97.057 574.01 96.7709 574.156 96.4657 574.24C96.2619 574.295 96.0519 574.323 95.8411 574.322Z" fill="#5C2626" stroke="#5C2626" stroke-width="3.2"/>
<path d="M105.273 573.639C104.744 573.639 104.23 573.459 103.81 573.127C103.391 572.795 103.089 572.329 102.952 571.803L47.4201 359.125C47.2635 358.493 47.3549 357.823 47.6744 357.259C47.994 356.696 48.5159 356.285 49.1271 356.115C49.7384 355.946 50.3898 356.032 50.9403 356.354C51.4907 356.676 51.8959 357.209 52.0681 357.837L107.599 570.513C107.765 571.149 107.679 571.827 107.36 572.397C107.042 572.968 106.517 573.384 105.901 573.556C105.696 573.612 105.485 573.64 105.273 573.639ZM42.9062 370.886H9.21912C8.90308 370.886 8.59009 370.822 8.29806 370.697C8.00602 370.573 7.74068 370.39 7.5172 370.159C7.29372 369.929 7.1165 369.655 6.99566 369.354C6.87483 369.053 6.81275 368.731 6.81299 368.405C6.81283 368.079 6.87496 367.756 6.99582 367.455C7.11669 367.154 7.29391 366.881 7.51738 366.65C7.74084 366.42 8.00615 366.237 8.29815 366.112C8.59015 365.988 8.9031 365.924 9.21912 365.924H42.9062C43.2222 365.924 43.5352 365.988 43.8272 366.112C44.1192 366.237 44.3845 366.42 44.608 366.65C44.8314 366.881 45.0087 367.154 45.1295 367.455C45.2504 367.756 45.3125 368.079 45.3124 368.405C45.3125 368.731 45.2504 369.053 45.1295 369.354C45.0087 369.655 44.8314 369.929 44.608 370.159C44.3845 370.39 44.1192 370.572 43.8272 370.697C43.5352 370.822 43.2222 370.886 42.9062 370.886Z" fill="#5C2626" stroke="#5C2626" stroke-width="3.2"/>
<path d="M49.7444 360.962H9.21912C8.9031 360.962 8.59015 360.898 8.29815 360.774C8.00615 360.649 7.74084 360.466 7.51738 360.236C7.29391 360.006 7.11669 359.732 6.99582 359.431C6.87496 359.13 6.81283 358.807 6.81299 358.481C6.81299 357.11 7.8888 356 9.21912 356H49.745C50.061 356 50.374 356.064 50.6661 356.189C50.9581 356.313 51.2235 356.496 51.4469 356.726C51.6704 356.957 51.8476 357.231 51.9684 357.532C52.0893 357.833 52.1513 358.156 52.1511 358.481C52.1511 358.807 52.0888 359.13 51.9679 359.431C51.8469 359.732 51.6696 360.005 51.4461 360.236C51.2227 360.466 50.9573 360.649 50.6653 360.774C50.3733 360.898 50.0604 360.962 49.7444 360.962Z" fill="#5C2626" stroke="#5C2626" stroke-width="3.2"/>
<path d="M9.21901 370.886C5.23826 370.886 2 367.547 2 363.443C2 359.339 5.23826 356 9.21901 356C9.53508 356 9.84809 356.064 10.1401 356.189C10.4322 356.313 10.6975 356.496 10.921 356.726C11.1444 356.957 11.3217 357.231 11.4425 357.532C11.5633 357.833 11.6254 358.156 11.6251 358.481C11.6253 358.807 11.5632 359.13 11.4423 359.431C11.3214 359.732 11.1442 360.006 10.9208 360.236C10.6973 360.466 10.432 360.649 10.14 360.774C9.84799 360.898 9.53503 360.962 9.21901 360.962C8.58096 360.963 7.96913 361.224 7.51797 361.689C7.0668 362.154 6.81319 362.785 6.81287 363.443C6.81335 364.101 7.06701 364.732 7.51814 365.197C7.96928 365.662 8.58101 365.923 9.21901 365.924C9.53503 365.924 9.84799 365.988 10.14 366.112C10.432 366.237 10.6973 366.42 10.9208 366.65C11.1442 366.881 11.3214 367.154 11.4423 367.455C11.5632 367.756 11.6253 368.079 11.6251 368.405C11.6253 368.731 11.5632 369.053 11.4423 369.354C11.3214 369.655 11.1442 369.929 10.9208 370.159C10.6973 370.39 10.432 370.572 10.14 370.697C9.84799 370.822 9.53503 370.886 9.21901 370.886ZM288.342 465.161H92.6756C92.3596 465.161 92.0467 465.097 91.7547 464.973C91.4627 464.848 91.1973 464.665 90.9739 464.435C90.7504 464.205 90.5732 463.931 90.4523 463.63C90.3315 463.329 90.2693 463.006 90.2695 462.68C90.2693 462.355 90.3315 462.032 90.4523 461.731C90.5732 461.43 90.7504 461.156 90.9739 460.926C91.1973 460.695 91.4627 460.513 91.7547 460.388C92.0467 460.264 92.3596 460.199 92.6756 460.2H288.342C289.672 460.2 290.749 461.309 290.749 462.68C290.749 463.006 290.687 463.329 290.566 463.63C290.445 463.931 290.268 464.205 290.044 464.435C289.821 464.666 289.555 464.848 289.263 464.973C288.971 465.098 288.658 465.162 288.342 465.161ZM278.718 499.894H107.113C105.783 499.894 104.707 498.785 104.707 497.413C104.707 496.042 105.783 494.932 107.113 494.932H278.718C280.048 494.932 281.124 496.042 281.124 497.413C281.124 498.785 280.048 499.894 278.718 499.894ZM269.092 534.627H116.738C116.422 534.628 116.109 534.564 115.817 534.439C115.525 534.314 115.26 534.131 115.036 533.901C114.813 533.671 114.636 533.397 114.515 533.096C114.394 532.795 114.332 532.472 114.332 532.146C114.332 531.82 114.394 531.498 114.515 531.196C114.636 530.895 114.813 530.622 115.036 530.391C115.26 530.161 115.525 529.978 115.817 529.854C116.109 529.729 116.422 529.665 116.738 529.665H269.092C269.408 529.665 269.721 529.729 270.013 529.854C270.305 529.978 270.571 530.161 270.794 530.391C271.018 530.622 271.195 530.895 271.316 531.196C271.437 531.498 271.499 531.82 271.499 532.146C271.499 533.518 270.423 534.627 269.092 534.627ZM91.0288 604.094C90.6674 604.094 90.3105 604.01 89.9855 603.847C89.7009 603.706 89.4461 603.508 89.2358 603.265C89.0254 603.022 88.8635 602.739 88.7594 602.432C88.6554 602.124 88.6111 601.799 88.6293 601.473C88.6474 601.148 88.7276 600.83 88.8652 600.537L103.11 570.082C103.685 568.852 105.124 568.338 106.322 568.925C106.897 569.211 107.338 569.721 107.548 570.343C107.758 570.964 107.72 571.646 107.443 572.239L93.1979 602.693C93.001 603.114 92.693 603.468 92.3092 603.716C91.9254 603.964 91.4816 604.095 91.0288 604.094ZM81.4999 604.094C81.1387 604.094 80.782 604.01 80.4572 603.847C80.1725 603.706 79.9176 603.508 79.7072 603.265C79.4967 603.022 79.3347 602.739 79.2306 602.432C79.1264 602.124 79.0822 601.799 79.1003 601.474C79.1185 601.148 79.1986 600.83 79.3363 600.537L93.5812 570.082C94.157 568.852 95.595 568.338 96.7936 568.925C97.3681 569.211 97.8089 569.721 98.0191 570.343C98.2293 570.964 98.1917 571.646 97.9145 572.239L83.6696 602.693C83.4727 603.114 83.1645 603.468 82.7806 603.716C82.3968 603.964 81.9528 604.095 81.4999 604.094ZM278.718 623.941H105.469C105.153 623.941 104.84 623.877 104.548 623.752C104.256 623.628 103.99 623.445 103.767 623.215C103.543 622.984 103.366 622.711 103.245 622.41C103.124 622.109 103.062 621.786 103.063 621.46C103.063 620.088 104.138 618.979 105.469 618.979H278.718C279.034 618.978 279.347 619.043 279.639 619.167C279.931 619.292 280.196 619.475 280.42 619.705C280.643 619.936 280.82 620.209 280.941 620.51C281.062 620.811 281.124 621.134 281.124 621.46C281.124 621.786 281.062 622.109 280.941 622.41C280.82 622.711 280.643 622.984 280.419 623.215C280.196 623.445 279.931 623.628 279.639 623.752C279.347 623.877 279.034 623.941 278.718 623.941ZM278.718 614.017H105.469C105.153 614.017 104.84 613.953 104.548 613.829C104.256 613.704 103.99 613.521 103.767 613.291C103.543 613.06 103.366 612.787 103.245 612.486C103.124 612.185 103.062 611.862 103.063 611.536C103.062 611.21 103.124 610.888 103.245 610.587C103.366 610.286 103.543 610.012 103.767 609.782C103.99 609.551 104.256 609.368 104.548 609.244C104.84 609.119 105.153 609.055 105.469 609.055H278.718C279.034 609.055 279.347 609.119 279.639 609.244C279.931 609.368 280.196 609.551 280.419 609.782C280.643 610.012 280.82 610.286 280.941 610.587C281.062 610.888 281.124 611.21 281.124 611.536C281.124 611.862 281.062 612.185 280.941 612.486C280.82 612.787 280.643 613.06 280.42 613.291C280.196 613.521 279.931 613.704 279.639 613.829C279.347 613.953 279.034 614.017 278.718 614.017Z" fill="#5C2626" stroke="#5C2626" stroke-width="3.2"/>
<path d="M105.469 623.941C90.8736 623.941 79 613.924 79 601.612C78.9998 601.286 79.062 600.964 79.1828 600.663C79.3037 600.362 79.4809 600.088 79.7044 599.858C79.9279 599.627 80.1932 599.444 80.4852 599.32C80.7772 599.195 81.0901 599.131 81.4061 599.131C81.7222 599.131 82.0351 599.195 82.3271 599.32C82.6191 599.444 82.8844 599.627 83.1079 599.858C83.3314 600.088 83.5086 600.362 83.6294 600.663C83.7503 600.964 83.8124 601.286 83.8123 601.612C83.8123 611.187 93.5271 618.979 105.469 618.979C105.785 618.978 106.098 619.042 106.39 619.167C106.682 619.292 106.947 619.475 107.171 619.705C107.394 619.936 107.571 620.209 107.692 620.51C107.813 620.811 107.875 621.134 107.875 621.46C107.875 621.786 107.813 622.109 107.692 622.41C107.571 622.711 107.394 622.984 107.17 623.215C106.947 623.445 106.682 623.628 106.39 623.752C106.098 623.877 105.785 623.941 105.469 623.941Z" fill="#5C2626" stroke="#5C2626" stroke-width="3.2"/>
<path d="M105.469 614.017C97.5167 614.017 88.625 608.711 88.625 601.612C88.6248 601.286 88.687 600.964 88.8078 600.663C88.9287 600.362 89.1059 600.088 89.3294 599.858C89.5528 599.627 89.8182 599.444 90.1102 599.32C90.4022 599.195 90.7151 599.131 91.0311 599.131C91.3472 599.131 91.6601 599.195 91.9521 599.32C92.2441 599.444 92.5094 599.627 92.7329 599.858C92.9563 600.088 93.1336 600.362 93.2544 600.663C93.3753 600.964 93.4374 601.286 93.4373 601.612C93.4373 605.232 99.622 609.055 105.469 609.055C105.785 609.055 106.098 609.119 106.39 609.244C106.682 609.368 106.947 609.551 107.17 609.781C107.394 610.012 107.571 610.285 107.692 610.587C107.813 610.888 107.875 611.21 107.875 611.536C107.875 611.862 107.813 612.185 107.692 612.486C107.571 612.787 107.394 613.06 107.17 613.291C106.947 613.521 106.682 613.704 106.39 613.828C106.098 613.953 105.785 614.017 105.469 614.017ZM278.718 623.941C278.401 623.941 278.089 623.877 277.797 623.752C277.505 623.628 277.239 623.445 277.016 623.215C276.792 622.984 276.615 622.711 276.494 622.41C276.373 622.109 276.311 621.786 276.311 621.46C276.311 620.088 277.387 618.979 278.718 618.979C279.356 618.978 279.967 618.717 280.419 618.252C280.87 617.787 281.123 617.156 281.124 616.498C281.124 615.132 280.043 614.017 278.718 614.017C278.401 614.017 278.088 613.953 277.796 613.829C277.504 613.704 277.239 613.521 277.016 613.291C276.792 613.06 276.615 612.787 276.494 612.486C276.373 612.185 276.311 611.862 276.311 611.536C276.311 611.21 276.373 610.888 276.494 610.587C276.615 610.285 276.792 610.012 277.016 609.781C277.239 609.551 277.505 609.368 277.797 609.244C278.089 609.119 278.401 609.055 278.718 609.055C282.698 609.055 285.936 612.394 285.936 616.498C285.936 620.602 282.698 623.941 278.718 623.941ZM259.468 544.551C259.152 544.551 258.839 544.487 258.547 544.362C258.255 544.238 257.99 544.055 257.766 543.824C257.543 543.594 257.365 543.321 257.245 543.019C257.124 542.718 257.062 542.396 257.062 542.07V452.756C257.062 452.431 257.124 452.108 257.245 451.807C257.365 451.506 257.543 451.232 257.766 451.002C257.99 450.771 258.255 450.589 258.547 450.464C258.839 450.34 259.152 450.275 259.468 450.276C259.784 450.275 260.097 450.34 260.389 450.464C260.681 450.589 260.946 450.771 261.17 451.002C261.393 451.232 261.57 451.506 261.691 451.807C261.812 452.108 261.874 452.431 261.874 452.756V542.071C261.874 542.396 261.812 542.719 261.691 543.02C261.57 543.321 261.393 543.594 261.169 543.825C260.946 544.055 260.681 544.238 260.389 544.362C260.097 544.487 259.784 544.551 259.468 544.551ZM225.78 544.551C225.464 544.551 225.151 544.487 224.859 544.362C224.567 544.238 224.302 544.055 224.079 543.824C223.855 543.594 223.678 543.32 223.557 543.019C223.436 542.718 223.374 542.396 223.375 542.07V452.756C223.374 452.431 223.436 452.108 223.557 451.807C223.678 451.506 223.855 451.232 224.079 451.002C224.302 450.772 224.567 450.589 224.859 450.464C225.151 450.34 225.464 450.275 225.78 450.276C227.11 450.276 228.187 451.385 228.187 452.756V542.071C228.187 542.396 228.125 542.719 228.004 543.02C227.883 543.321 227.706 543.595 227.482 543.825C227.259 544.055 226.993 544.238 226.701 544.362C226.409 544.487 226.096 544.551 225.78 544.551ZM192.092 544.551C191.776 544.551 191.463 544.487 191.171 544.362C190.879 544.238 190.614 544.055 190.391 543.824C190.167 543.594 189.99 543.321 189.869 543.019C189.748 542.718 189.686 542.396 189.686 542.07V452.756C189.686 452.431 189.748 452.108 189.869 451.807C189.99 451.506 190.167 451.232 190.391 451.002C190.614 450.771 190.879 450.589 191.171 450.464C191.463 450.34 191.776 450.275 192.092 450.276C193.423 450.276 194.499 451.385 194.499 452.756V542.071C194.499 542.396 194.437 542.719 194.316 543.02C194.195 543.321 194.018 543.595 193.794 543.825C193.571 544.055 193.305 544.238 193.013 544.362C192.721 544.487 192.408 544.551 192.092 544.551ZM158.405 544.551C158.089 544.551 157.776 544.487 157.484 544.362C157.192 544.238 156.927 544.055 156.704 543.824C156.48 543.594 156.303 543.321 156.182 543.019C156.061 542.718 155.999 542.396 155.999 542.07V452.756C155.999 452.431 156.061 452.108 156.182 451.807C156.303 451.506 156.48 451.232 156.704 451.002C156.927 450.771 157.192 450.589 157.484 450.464C157.776 450.34 158.089 450.275 158.405 450.276C159.736 450.276 160.812 451.385 160.812 452.756V542.071C160.812 542.396 160.75 542.719 160.629 543.02C160.508 543.321 160.331 543.595 160.107 543.825C159.884 544.055 159.618 544.238 159.326 544.362C159.034 544.487 158.721 544.551 158.405 544.551ZM124.718 544.551C124.402 544.551 124.089 544.487 123.797 544.362C123.505 544.238 123.24 544.055 123.016 543.824C122.793 543.594 122.616 543.321 122.495 543.019C122.374 542.718 122.312 542.396 122.312 542.07V452.756C122.312 452.431 122.374 452.108 122.495 451.807C122.616 451.506 122.793 451.232 123.016 451.002C123.24 450.771 123.505 450.589 123.797 450.464C124.089 450.34 124.402 450.275 124.718 450.276C125.034 450.275 125.347 450.34 125.639 450.464C125.931 450.589 126.197 450.771 126.42 451.002C126.643 451.232 126.821 451.506 126.942 451.807C127.062 452.108 127.125 452.431 127.124 452.756V542.071C127.125 542.396 127.062 542.719 126.942 543.02C126.821 543.321 126.643 543.594 126.42 543.825C126.196 544.055 125.931 544.238 125.639 544.362C125.347 544.487 125.034 544.551 124.718 544.551ZM122.312 663.635C111.698 663.635 103.062 654.734 103.062 643.788C103.062 641.86 103.33 639.95 103.861 638.119C104.044 637.489 104.461 636.959 105.022 636.647C105.583 636.334 106.241 636.264 106.852 636.451C107.155 636.543 107.438 636.696 107.683 636.901C107.928 637.106 108.132 637.359 108.283 637.646C108.433 637.932 108.527 638.246 108.56 638.57C108.592 638.894 108.562 639.222 108.472 639.534C108.075 640.915 107.874 642.347 107.875 643.787C107.875 651.995 114.351 658.673 122.312 658.673C130.273 658.673 136.75 651.995 136.75 643.787C136.75 642.338 136.547 640.909 136.153 639.534C136.062 639.222 136.032 638.894 136.064 638.57C136.097 638.246 136.191 637.932 136.341 637.646C136.492 637.36 136.695 637.107 136.941 636.902C137.186 636.696 137.468 636.543 137.771 636.451C138.074 636.357 138.391 636.326 138.706 636.359C139.02 636.392 139.325 636.489 139.603 636.644C139.881 636.799 140.127 637.009 140.326 637.262C140.525 637.515 140.673 637.806 140.763 638.119C141.295 639.958 141.564 641.868 141.562 643.788C141.562 654.734 132.926 663.635 122.312 663.635Z" fill="#5C2626" stroke="#5C2626" stroke-width="3.2"/>
<path d="M122.312 651.231C116.9 651.231 111.541 638.167 107.999 627.206C107.899 626.898 107.859 626.572 107.881 626.247C107.904 625.922 107.988 625.605 108.129 625.314C108.27 625.023 108.466 624.763 108.704 624.55C108.943 624.337 109.219 624.174 109.519 624.071C109.818 623.967 110.135 623.924 110.45 623.947C110.766 623.969 111.074 624.055 111.356 624.201C111.639 624.346 111.891 624.548 112.098 624.794C112.305 625.04 112.463 625.326 112.562 625.636C115.878 635.889 120.517 645.542 122.486 646.292C124.107 645.542 128.746 635.889 132.061 625.636C132.16 625.326 132.318 625.04 132.525 624.794C132.732 624.548 132.984 624.346 133.267 624.201C133.55 624.055 133.858 623.969 134.173 623.947C134.489 623.924 134.805 623.967 135.104 624.071C135.404 624.174 135.681 624.336 135.92 624.55C136.158 624.763 136.354 625.022 136.495 625.314C136.636 625.605 136.721 625.922 136.743 626.247C136.765 626.571 136.725 626.898 136.625 627.206C133.083 638.167 127.724 651.231 122.312 651.231ZM247.436 663.635C236.825 663.635 228.187 654.734 228.187 643.788C228.187 641.855 228.459 639.946 228.986 638.114C229.171 637.485 229.591 636.957 230.152 636.646C230.714 636.334 231.372 636.264 231.983 636.452C232.594 636.642 233.107 637.073 233.41 637.652C233.713 638.23 233.781 638.909 233.601 639.539C233.201 640.91 232.999 642.339 232.999 643.789C232.999 651.997 239.476 658.674 247.436 658.674C255.397 658.674 261.874 651.997 261.874 643.789C261.874 642.339 261.677 640.91 261.277 639.535C261.097 638.904 261.167 638.225 261.471 637.646C261.774 637.068 262.288 636.637 262.899 636.447C263.202 636.355 263.52 636.325 263.835 636.359C264.149 636.393 264.454 636.491 264.732 636.646C265.01 636.802 265.256 637.013 265.455 637.266C265.654 637.52 265.802 637.811 265.892 638.124C266.42 639.963 266.687 641.871 266.686 643.789C266.686 654.734 258.048 663.635 247.436 663.635Z" fill="#5C2626" stroke="#5C2626" stroke-width="3.2"/>
<path d="M247.437 651.231C242.023 651.231 236.665 638.167 233.121 627.207C232.921 626.583 232.968 625.902 233.254 625.314C233.539 624.726 234.039 624.279 234.644 624.071C234.944 623.967 235.26 623.926 235.576 623.948C235.891 623.971 236.199 624.057 236.482 624.202C236.764 624.348 237.017 624.549 237.224 624.795C237.431 625.041 237.589 625.327 237.689 625.636C241.003 635.889 245.642 645.542 247.611 646.293C249.232 645.542 253.87 635.889 257.184 625.636C257.284 625.327 257.442 625.041 257.649 624.795C257.856 624.548 258.109 624.347 258.391 624.202C258.674 624.056 258.982 623.97 259.298 623.947C259.613 623.925 259.93 623.967 260.229 624.071C260.834 624.279 261.335 624.726 261.62 625.314C261.906 625.902 261.953 626.583 261.752 627.207C258.208 638.167 252.851 651.231 247.437 651.231Z" fill="#5C2626" stroke="#5C2626" stroke-width="3.2"/>
<g clip-path="url(#clip0_3_98)">
<path d="M977.611 587.116C966.224 569.55 947.573 549.653 917.209 538.342C899.843 548.885 878.746 555.093 856.003 555.093C833.247 555.093 812.15 548.886 794.784 538.342C764.421 549.653 745.769 569.55 734.388 587.116C719.284 610.416 731.126 643.383 757.249 643.383C783.372 643.383 856.004 643.383 856.004 643.383C856.004 643.383 928.628 643.383 954.752 643.383C980.874 643.383 992.717 610.416 977.611 587.116Z" fill="#5C2626" stroke="#5C2626" stroke-width="0.5"/>
<path d="M856.003 533.047C900.605 533.047 936.751 501.668 936.751 462.968V446.18C936.751 407.48 900.605 376.102 856.003 376.102C811.394 376.102 775.242 407.48 775.242 446.181V462.968C775.242 501.668 811.395 533.047 856.003 533.047Z" fill="#5C2626" stroke="#5C2626" stroke-width="0.5"/>
</g>
<g clip-path="url(#clip1_3_98)">
<path d="M433.444 283.543L482.172 234.815H554.034C612.533 234.815 660 187.348 660 128.85C660 70.3513 612.596 22.8843 554.034 22.8843H457.966C399.404 22.8843 352 70.3513 352 128.85C352 175.687 382.384 215.337 424.493 229.331V279.824C424.493 284.552 430.103 286.884 433.444 283.543ZM549.559 115.738C556.808 115.738 562.67 121.601 562.67 128.85C562.67 136.099 556.808 141.962 549.559 141.962C542.309 141.962 536.447 136.099 536.447 128.85C536.447 121.601 542.309 115.738 549.559 115.738ZM506 115.738C513.249 115.738 519.112 121.601 519.112 128.85C519.112 136.099 513.249 141.962 506 141.962C498.751 141.962 492.888 136.099 492.888 128.85C492.888 121.601 498.751 115.738 506 115.738ZM462.441 115.738C469.691 115.738 475.553 121.601 475.553 128.85C475.553 136.099 469.691 141.962 462.441 141.962C455.192 141.962 449.33 136.099 449.33 128.85C449.33 121.601 455.192 115.738 462.441 115.738Z" fill="#5C2626"/>
</g>
<circle cx="506" cy="854" r="154" fill="#5C2626"/>
<path d="M497.278 990.273V717.545H514.749V990.273H497.278ZM556.084 799.364C554.806 788.568 549.621 780.188 540.53 774.222C531.439 768.256 520.289 765.273 507.079 765.273C497.42 765.273 488.968 766.835 481.724 769.96C474.55 773.085 468.939 777.382 464.891 782.851C460.914 788.32 458.925 794.534 458.925 801.494C458.925 807.318 460.31 812.325 463.08 816.516C465.921 820.635 469.543 824.08 473.947 826.849C478.35 829.548 482.966 831.786 487.796 833.561C492.626 835.266 497.064 836.651 501.113 837.716L523.272 843.682C528.954 845.173 535.275 847.233 542.235 849.861C549.266 852.489 555.978 856.075 562.37 860.621C568.833 865.095 574.16 870.848 578.35 877.879C582.54 884.911 584.635 893.54 584.635 903.767C584.635 915.557 581.546 926.21 575.367 935.727C569.259 945.244 560.31 952.808 548.52 958.419C536.802 964.03 522.562 966.835 505.8 966.835C490.175 966.835 476.645 964.314 465.211 959.271C453.847 954.229 444.898 947.197 438.364 938.178C431.901 929.158 428.243 918.682 427.391 906.75H454.664C455.374 914.989 458.144 921.807 462.974 927.205C467.874 932.531 474.053 936.509 481.51 939.136C489.039 941.693 497.135 942.972 505.8 942.972C515.885 942.972 524.941 941.338 532.966 938.071C540.992 934.733 547.349 930.116 552.036 924.222C556.724 918.256 559.067 911.295 559.067 903.341C559.067 896.097 557.043 890.202 552.995 885.656C548.947 881.111 543.62 877.418 537.015 874.577C530.41 871.736 523.272 869.25 515.601 867.119L488.755 859.449C471.709 854.548 458.215 847.553 448.272 838.462C438.329 829.371 433.357 817.474 433.357 802.773C433.357 790.557 436.66 779.903 443.265 770.812C449.941 761.651 458.89 754.548 470.111 749.506C481.404 744.392 494.01 741.835 507.931 741.835C521.993 741.835 534.493 744.357 545.431 749.399C556.368 754.371 565.033 761.189 571.425 769.854C577.888 778.518 581.297 788.355 581.653 799.364H556.084Z" fill="#FFD6B6"/>
<defs>
<clipPath id="clip0_3_98">
<rect width="308" height="267.281" fill="white" transform="translate(702 376.102)"/>
</clipPath>
<clipPath id="clip1_3_98">
<rect width="308" height="308" fill="white" transform="translate(352)"/>
</clipPath>
</defs>
</svg>
