<svg width="1080" height="1080" viewBox="0 0 1080 1080" fill="none" xmlns="http://www.w3.org/2000/svg">
<g clip-path="url(#clip0_180_83)">
<rect width="1080" height="1080" fill="white"/>
<circle cx="540" cy="379" r="200" fill="#5C2626"/>
<path d="M1015 1080C1015 1017.62 1002.71 955.855 978.843 898.225C954.972 840.596 919.984 788.232 875.876 744.124C831.768 700.016 779.404 665.028 721.775 641.157C664.145 617.286 602.378 605 540 605C477.622 605 415.855 617.286 358.225 641.157C300.596 665.028 248.232 700.016 204.124 744.124C160.016 788.232 125.028 840.596 101.157 898.225C77.2862 955.855 65 1017.62 65 1080L540 1080H1015Z" fill="#5C2626"/>
</g>
<defs>
<clipPath id="clip0_180_83">
<rect width="1080" height="1080" fill="white"/>
</clipPath>
</defs>
</svg>
